PathFileType	4	(X/Y/Z)	D:\TRACE\v60_Jaco2_6-2-23\JustArmDRS_Motion3_3-platform.trc
DataRate	CameraRate	NumFrames	NumMarkers	Units	OrigDataRate	OrigDataStartFrame	OrigNumFrames
100.00	100.00	      24	5	mm	100.00	6126	      7000
Frame#	Time	Left_Front			Right_Front			Left_Aft			Right_Aft			Post			
		X1	Y1	Z1	X2	Y2	Z2	X3	Y3	Z3	X4	Y4	Z4	X5	Y5	Z5	

6126	61.250	-776.27344	16.45454	-648.99127	794.08533	14.69152	-626.45001	-707.84741	6.45854	484.75443	706.62201	3.22152	590.60156	18.98329	1317.04395	-948.82324	
6127	61.260	-776.31744	16.53169	-648.93634	794.11938	14.73756	-626.44733	-707.83105	6.38616	484.74399	706.65356	3.21590	590.58606	19.05596	1317.11731	-948.69653	
6128	61.270	-776.30316	16.59748	-648.97449	794.06696	14.87937	-626.42487	-707.82245	6.32233	484.81293	706.71417	3.17070	590.62872	19.07560	1317.26050	-948.56195	
6129	61.280	-776.30371	16.66626	-649.00299	794.10773	14.89307	-626.38916	-707.80664	6.24797	484.85703	706.71478	3.07502	590.65906	19.02691	1317.41138	-948.47052	
6130	61.290	-776.31879	16.69426	-648.96484	794.02753	15.03046	-626.33807	-707.79407	6.07677	484.94888	706.62677	2.92638	590.73706	18.87970	1317.65723	-948.29059	
6131	61.300	-776.41650	16.92058	-648.95911	793.91736	15.22734	-626.29089	-707.84460	5.89150	485.02921	706.46484	2.71498	590.83783	18.80678	1317.88489	-948.14752	
6132	61.310	-776.62274	17.27029	-648.97430	793.74896	15.47833	-626.25519	-708.01147	5.71538	485.09253	706.47980	2.59294	590.77429	18.59356	1318.24805	-947.94818	
6133	61.320	-776.85040	17.57027	-648.99005	793.55365	15.70682	-626.25916	-708.18787	5.59543	485.09116	706.30408	2.40921	590.81256	18.47488	1318.64868	-947.60327	
6134	61.330	-777.06940	17.78671	-649.05011	793.36121	16.01269	-626.27979	-708.45050	5.49571	485.06863	706.10626	2.17343	590.93396	18.17767	1319.02795	-946.97369	
6135	61.340	-777.31073	18.07001	-648.99463	793.20032	16.29803	-626.23938	-708.65259	5.40052	485.03259	705.88562	1.88539	590.94904	18.04171	1319.41064	-946.28088	
6136	61.350	-777.50275	18.33254	-648.90332	793.07190	16.62097	-626.05798	-708.86371	5.28373	485.06943	705.69244	1.70324	590.98297	18.04807	1319.80701	-945.41449	
6137	61.360	-777.71313	18.48678	-648.87964	792.93707	16.76539	-626.08325	-709.03357	5.14994	485.12122	705.54962	1.53623	590.97168	18.06145	1319.94214	-944.57385	
6138	61.370	-777.78723	18.66750	-648.83282	792.83398	17.02546	-625.97949	-709.11829	5.04070	485.19608	705.32129	1.37213	591.01984	17.87387	1320.09351	-943.81055	
6139	61.380	-777.94183	18.85411	-648.83160	792.70502	17.16119	-626.02948	-709.20801	4.92616	485.18488	705.17938	1.26715	590.98206	17.39124	1320.43604	-943.03741	
6140	61.390	-778.07574	19.03870	-648.73004	792.37341	17.36449	-625.97430	-709.48431	4.86291	485.10196	704.98444	1.13899	591.07355	17.22269	1320.86487	-942.55237	
6141	61.400	-778.21606	19.15103	-648.60889	792.10822	17.57497	-625.94824	-709.80231	4.70584	485.05951	704.78314	0.94438	591.09973	16.94314	1321.18127	-942.18726	
6142	61.410	-778.39886	19.28913	-648.48969	792.03882	17.77890	-625.84058	-709.64075	4.29164	485.18109	704.61658	0.67756	591.19049	16.76160	1321.36157	-942.10870	
6143	61.420	-778.56805	19.49031	-648.40686	791.79407	18.01095	-625.73779	-710.08722	4.07955	485.32523	704.50592	0.51028	591.21600	16.70428	1321.64404	-941.98505	
6144	61.430	-778.89392	19.92754	-648.36768	791.55420	18.28297	-625.64056	-710.27527	3.78115	485.47189	704.33453	0.32825	591.28992	16.40375	1322.18835	-941.74500	
6145	61.440	-779.13507	20.18285	-648.21136	791.39496	18.54266	-625.55542	-710.53931	3.64522	485.59958	703.96631	-0.01037	591.33539	16.10258	1322.79834	-941.63513	
6146	61.450	-779.34174	20.32654	-648.00336	791.16882	18.83326	-625.47791	-710.79041	3.57526	485.75485	703.55341	-0.27613	591.44702	15.96228	1323.19934	-941.35620	
6147	61.460	-779.67651	20.60537	-647.88104	790.94141	19.13344	-625.34137	-710.97992	3.31754	485.77530	703.32745	-0.47578	591.53302	15.68560	1323.58911	-940.43115	
6148	61.470	-780.11218	21.13056	-647.91248	790.56555	19.43048	-625.21942	-711.33044	3.07437	485.87405	703.26874	-0.58182	591.68738	15.43372	1323.91211	-939.81342	
6149	61.480	-780.19434	21.57443	-647.94055	790.37256	19.68650	-625.11682	-711.58063	2.90160	485.88315	703.06213	-0.79046	591.72546	15.55821	1324.48315	-938.77942	
